<svg version="1" xmlns="http://www.w3.org/2000/svg" width="533.333" height="533.333" viewBox="0 0 400.000000 400.000000"><path d="M0 200v200h108.1c102.6 0 108.1-.1 107.4-1.8-2.5-6.3-4.8-17.7-4.8-24.2-.1-6.6.4-8.4 3.6-15.1 3.8-8 8.7-20.4 8.7-22.1 0-.6-.6-.5-1.4.2-.8.6-3.7 1-6.3.9-2.7-.1-5.3 0-5.9.3-.5.3-4 .6-7.7.7-8 .1-9.5-.6-21-9.2-4.5-3.4-9.9-7.1-11.9-8.2-2.1-1.1-3.8-2.2-3.8-2.5 0-.3-2.7-2.1-6-4-3.2-1.9-6.5-4.5-7.1-5.8-.7-1.2-1.8-2.2-2.5-2.2s-2.5-1.2-4.1-2.6c-2.7-2.5-2.7-2.5-3.5-.4-1 2.6.6 6.6 3.2 8 1.1.6 2 1.5 2 2 0 .4 1.2 2.2 2.8 3.8 9.1 9.7 10.4 11.4 9.9 13.8-.3 2 0 2.4 1.9 2.4 2.3 0 2.6.4 2.8 3.9.2 2.4 2.6 2.5 2.6.1s2.4-2.3 2.6.1c.2 3.4.5 3.9 1.8 3.9.8 0 1.8.9 2.1 2 .3 1.1 1 2 1.5 2 .9 0 5 7.4 5 9 0 .6-.7 1-1.5 1-.9 0-1.5.9-1.5 2.5 0 1.4.5 2.5 1 2.5.6 0 1 .9 1 2s-.3 2-.8 2c-1.3 0-4.8 10-4.3 12.8.1.6-.5 1.2-1.4 1.2-.8 0-1.5.7-1.5 1.5 0 1.9-2.4 1.9-4 0-.7-.9-1.5-1.3-1.8-1-.3.3-1.2 0-1.9-.7-1-.8-1.7-.8-2.1-.2-.4.6-1.6 1.4-2.7 1.9-1.9.8-1.9.8-.2 1.2 1.3.3 1.7 1.1 1.4 2.3-.3 1 .2 2.8 1 3.9 1.2 1.9 1.2 2.1-.1 2.1-.9 0-1.6.4-1.6 1 0 .5-.7 1-1.5 1s-1.5-.5-1.5-1c0-.6.5-1 1.2-1 .9 0 .9-.3 0-1.2-1.8-1.8-2.7-.1-2.5 4.8.2 4.8-1.3 6.7-3.3 4-.7-1-1.8-1.5-2.4-1.1-1.2.8-8.4-6.1-13.6-13.1-1.6-2.1-3.1-4.1-3.5-4.4-.3-.3-2.7-3.6-5.3-7.4-5.6-8.1-11.7-19.7-14.7-28.2-3.8-10.9-3.6-30.1.5-36.9 3.1-5.1 4.4-12.6 5.1-29.6.6-16.9-.2-26-2.6-27.4-.4-.3-2.4.3-4.4 1.4-3.9 2-9.9 1.5-11.7-1.1-3.8-5.7-5-10-2.1-7.7 1.7 1.3 1.7 1.3.1-1.1-.9-1.4-2.1-2.4-2.7-2.2-.6.1-1.1-.7-1.1-1.8s.5-2 1-2c1.8 0 1.1-2.9-1-4.2-1.1-.7-2-1.8-2-2.5 0-2.4 5.3-1.3 10.7 2.3 6.6 4.4 8.8 3.6 5.4-2.1-1.4-2.4-1.9-4.5-1.5-6.3 1.1-5.2 1.3-5.5 2.8-4.3.8.7 1.8 1.1 2.2 1 .5-.1 1.7.1 2.6.5 2.4 1.1 6 .3 6.8-1.4.4-.8 1.3-2.6 2-3.9 1.4-2.8 2.8-16 3.6-35.6.5-11.2 1.1-15.2 2.9-20 1.6-3.9 2.4-8.6 2.6-13.5.3-8.8 1-10.1 5-9.3 1.6.3 2.9.4 2.9.2s-.7-2.2-1.5-4.4c-1.9-5.4-1.8-7.4.3-8.2 2.7-1 5.4-4.3 4.8-5.9-.3-.8.1-1.4 1-1.4.8 0 1.3.4 1 .9-.3.5 1.2.9 3.4.9 5.6.1 13 5.5 14.6 10.7 2 6.6 7.2 20 10 26.1 1.9 3.9 3.4 7.6 3.4 8.2 0 .8-1.9 1.2-5 1.2-5.2 0-8.9 1.2-12.9 4.2-1.3 1-3.7 1.8-5.3 1.8-3.4 0-10.8 3-9 3.7.7.3 2.5 0 4.1-.5 1.6-.6 4.2-.9 5.8-.7 1.5.2 7.1.6 12.3 1 5.2.3 10.8 1.1 12.5 1.8 1.6.8 4.1 1.9 5.5 2.5 2.4 1 2.3 1.1-1.2 1.1-4 .1-4.6.9-2.6 2.9.7.7.9 1.2.4 1.2-.4 0-1.4-.7-2.2-1.5-1.8-1.8-10.3-1.3-17.7.9-7.3 2.2-14.1 10.3-8.9 10.7 7.6.6 12.1.3 14.3-1 2.5-1.4 2.8-1.3 5.1 1.4 2 2.3 3.2 2.8 6.3 2.7 4.5-.2 6.1-1.3 7.7-5.8 1.5-4.2 3.9-4.4 6.7-.7 3.6 4.9 4.1 5.3 6.1 5.3 2.2 0 2.7-2.9.8-4.8-1.8-1.8 0-2.8 2.4-1.3 1.1.7 4.6 1.5 7.7 1.8l5.6.4-3.9-3.4c-3.7-3.3-3.9-3.6-3.4-8.5.3-2.7.1-5.7-.4-6.6-1.5-2.6-6.1-4.5-14.9-6-8.5-1.5-9.9-2.3-14.5-9.1-1.1-1.7-2.6-4.4-3.3-6.2-1.1-2.8-1.1-3.5.3-4.8.9-.9 1.6-2.3 1.6-3 0-2.1 3.1-2.2 7-.4 1.9.9 5.1 2.4 7 3.2 9.1 3.9 11 4.8 11.5 5.7.4.6 1.1.8 1.6.4.8-.5 5.5.6 9.9 2.3 2 .8 4.9 1 14 1.1 11.2.1 13.5-.2 15.4-1.7 1.6-1.4 3-1.3 15.6.7 5.5.9 6.7 3.6 2 4.5-7.7 1.6-14.1 4-16.2 6.2-2.4 2.5-3.3 9-1.6 11.2.7.9.7 1.3 0 1.3-.8 0-5.2 7.1-5.2 8.5 0 .3 1.1.3 2.5-.1 2.3-.6 2.4-.4 1.8 3-.4 2.4-.2 3.6.6 3.6.6 0 1.1-.7 1.1-1.5s.8-1.5 1.8-1.5 2.3-.5 2.8-1c.7-.7 1.5-.2 2.4 1.5 1.2 2.2 2 2.5 7.2 2.5 5.5 0 6-.2 7.6-3 2.1-3.6 3.5-3.8 5-.6 1 2.2 1.6 2.4 4.7 1.9 2.8-.4 3.5-.2 3.5 1.1 0 1.8 2.5 2.2 3.5.6.9-1.4 5.5-1.2 6 .2.6 1.7 1.7 21.8 1.5 28.8 0 3-.5 8.1-1.1 11.3-.9 5.1-.8 6.2 1 9 1.4 2.3 2 5.3 2.2 10.5.1 4 .6 7.5 1.1 7.8.5.3 1.9-1.9 3.3-5 1.3-3 4.1-7.4 6.1-9.6l3.7-4.1-1.2-5.5c-.7-3.1-1.4-8.5-1.5-12.1-.2-6.2-.3-6.5-4.4-10-2.3-1.9-4.2-4.1-4.2-4.8 0-.8-.8-2.7-1.7-4.3-1.4-2.5-1.5-3.4-.5-5.7 1.1-2.3 1.7-2.6 4.5-2.1 4.8.7 7.9 1.8 10.5 3.4 2.9 1.9 7.9 2.5 8.7 1.2 3.5-5.7 14.6 10.2 17 24.5.4 2.2 1.6 6.9 2.6 10.4 2.3 7.5 2.3 9.8.4 13.1-3.2 5.8-4.2 8.8-3.7 11.9.4 3 .2 3.2-1.5 2.7-1.6-.5-2.3 0-3.3 2.3-.7 1.7-2.4 4.3-3.7 5.8-2 2.1-2.3 3-1.5 4.4.9 1.4.5 3-2 7.6-1.6 3.2-3.4 6.3-3.9 6.8-1.1 1.4-3.6 9.2-4.3 13.8-.4 2-1.1 3.7-1.6 3.7-.6 0-.9.6-.7 1.2.1.7-.4 1.2-1 1.1-.7-.2-1.3.4-1.3 1.3 0 1.3-.3 1.4-1.4.5-1.8-1.5-3 .1-2.1 3 .7 2-2 9-3.7 9.7-.5.2-.8.9-.8 1.5-.1 1.7-3.6 5.7-5 5.7-.6 0-1 .8-.8 1.7.2 1.3-.3 1.7-1.7 1.6-1.8-.1-3.4 1.2-3.5 2.8 0 .4 1 1 2.3 1.4 2 .7 1.9.8-1.1 1.2-1.8.2-3 .8-2.7 1.3.3.5 1.2.7 1.9.4 2.2-.8 3 1.5 1.2 3.5-.9 1-1.4 2.5-1 3.5.3.9.2 1.6-.4 1.6-.5 0-1.3 1.6-1.7 3.6-.3 2-1 4.4-1.5 5.3-2.8 5.6-3 6.9-2.3 12.6.5 3.3.5 8.5.2 11.5-.7 5.8-.2 7.1 4.4 12.3l2.4 2.7H400l-.1-5c-.2-4.5-.5-5.2-3-6.6-2.6-1.3-3.3-1.2-3.1.7.1.3-1.5 1.2-3.3 2.1-2.9 1.3-3.6 1.3-4.6.2-.9-1.1-.8-1.4.1-1.4s.8-.5-.3-1.8c-1.2-1.3-1.4-2.1-.6-2.9.9-.9.4-1.8-1.6-3.7-2.8-2.6-7.5-3.3-18.7-2.9-3.1.1-3.2 0-1.8-2.8.7-1.3.7-1.9 0-1.9-.5 0-1-.4-1-.8 0-.5 2.1-.9 4.8-1 4-.2 5.8.5 11.9 4.2 4 2.4 6.9 4.7 6.5 5.1-.4.5.1.5 1.1.2 2-.7 9.2 1.8 12 4.1 1.6 1.4 1.7-7.8 1.7-192.1V0H0v200zM221 25.2c2.4 1.1 7.6 2.6 11.5 3.4 11.4 2.4 14.6 3.4 13.9 4.5-.3.6.3.5 1.5-.3 1.6-1 2.3-1 3.3 0 .6.6 2.2 1.2 3.4 1.2 1.2 0 2.4.7 2.8 1.5.3.8 1.2 1.5 2.1 1.5 1.8 0 1.9.8.3 4.4-1.1 2.4-1.7 2.7-4.7 2.2-1.9-.3-3.7-.9-4-1.4-.3-.5-2.1-1.7-3.8-2.7-1.8-1.1-3.3-2.3-3.3-2.7 0-.4-.5-.8-1-.8-.6 0-2.7-.7-4.8-1.7-6.1-2.7-10.6-4.2-11.1-3.8-.2.3-1.9-.5-3.8-1.6-2.4-1.5-5.5-2.2-11.6-2.5-10.6-.5-14.6-.5-17.9.2-1.7.3-2.8.1-2.8-.5s.8-1.1 1.8-1.1 2.2-.4 2.8-1c1-1 14.3-1.8 18.4-1.1 1.4.2 4.5 1.3 7 2.3zm-32.6 1.2c-.3.8-1.5 1.7-2.7 2.1-2.1.6-2.1.7-.3 1.4 1.9.7 1.9.8 0 1.6-1.7.7-4.2.8-15.7.6-3.2-.1-3.3-2.5-.1-2.7 1-.1 3.3-.7 4.9-1.4 1.7-.7 4.7-1.2 6.7-1.1 2.1.1 4.2-.4 5-1.3 1.5-1.6 2.9-1.1 2.2.8zm5.9 6.3c-.7.2-2.1.2-3 0-1-.3-.4-.5 1.2-.5 1.7 0 2.4.2 1.8.5zm17.2.8c4.4.8 8.2 1.5 8.5 1.5.3 0-.2.4-1 .9-.8.6-2.8.7-4.5.4-4.3-.8-2 1.1 3.1 2.5 2.3.7 5.5 1.2 7.2 1.2 1.7 0 3.4.4 3.7 1 .3.5 1.7 1 3.1 1 1.3 0 2.4-.5 2.4-1 0-.6 1-1 2.2-1 2.1 0 2.1 0 .3 1.4-1.9 1.3-1.7 1.5 2.3 3.1 2.3 1 4.2 2.3 4.2 3 0 1.1-1.1 1-5.7-.2-3.2-.8-6.6-1.9-7.6-2.5-1-.5-3.5-1-5.5-1.2-5.9-.4-17.5-3.9-19.4-5.9-2.5-2.4-2.3-2.7 1.4-2 2.2.4 2.9.3 2.4-.5-.4-.7-2.8-1.2-5.4-1.2-2.6 0-5.4-.5-6.2-1-2.3-1.5 5-1.2 14.5.5zm-9.5 3c0 .8-.6 1.5-1.4 1.5-1.7 0-2.8-1.4-1.9-2.4 1.2-1.2 3.3-.6 3.3.9zm22 1.6c0 .4-.7.6-1.5.3-.8-.4-1.5-1-1.5-1.5 0-.4.7-.6 1.5-.3.8.4 1.5 1 1.5 1.5zm26.1 11.1c3.6 1 5.3 2.8 2.9 2.8-1.5 0-8-2.8-8-3.4 0-.8.8-.7 5.1.6zM132 55c0 .5.5 1 1 1 .6 0 1 .7 1 1.5s-.7 1.5-1.5 1.5c-.9 0-1.5-.9-1.5-2.5 0-1.4-.7-2.8-1.5-3.1-.8-.4-1.5-1.2-1.5-2 0-1 .6-.8 2 .6 1.1 1.1 2 2.4 2 3zm-12 4.2c0 3-1.3 5.8-2.6 5.8-1.7 0-1.7-1-.4-4.4 1-2.7 3-3.6 3-1.4zm-6 4.8c0 .5-.4 1-1 1-.5 0-.9 1-.7 2.2.2 1.7-.5 2.3-3 2.9-3.5.7-4.7-.5-1.3-1.4 1.2-.3 2-1.4 2-2.5 0-1.8 1.1-2.9 3.3-3.1.4-.1.7.3.7.9zm136 74.5c7.3 4.8 12 8.9 12 10.5 0 3.7-25-2.1-26.8-6.3-.2-.4-.9-.7-1.6-.7-1.7 0-6.6-4.9-6.6-6.6 0-1.5 4.4-2.1 11.5-1.5 3.8.3 6.6 1.4 11.5 4.6zm-26.3 5.1c-.3.3-1.2.4-1.9.1-.8-.3-.5-.6.6-.6 1.1-.1 1.7.2 1.3.5zm51.8 23.2c1.8 1.3 3.2 4.7 3 7.2-.2 2.5-.2 2.5-11.5 2.8-6.2.1-11.7-.1-12.2-.6-1.8-1.8.6-4.1 7.5-7 7.2-3.1 11.3-3.8 13.2-2.4zm-5.5 12.8c4.9 2 5.4 4 .8 2.9-1.8-.4-6.4-.9-10.3-1.1-3.8-.2-7.2-.4-7.5-.5-.3 0 .9-.7 2.5-1.4 4.1-1.9 9.6-1.8 14.5.1zm-98 4.4c-.8.5-1.9 1-2.5 1-.5 0-.3-.5.5-1s2-1 2.5-1c.6 0 .3.5-.5 1zM91 304.1c0 .4-.7.6-1.5.2-1.6-.5-5.5 2.2-5.5 3.9 0 1.1-2.6 3.8-3.6 3.8-1.4 0-4.4 3.3-4.4 4.8 0 .9-.7 2.3-1.6 3.3-1.5 1.7-1.7 1.6-3.5-.2-2.4-2.4-2.4-2.5.2-3.2 1.2-.3 1.8-1 1.4-1.6-.3-.7.3-1.1 1.5-1.1 1.5 0 2.6-1.1 3.6-3.6 2-4.8 3.4-6.1 7.5-7.2 3.6-.9 5.9-.6 5.9.9zm-26.5 9.8c-3.6.5-4 .9-4 3.3.1 1.6-.3 2.8-.7 2.8-.4 0-.8-.5-.8-1 0-.6-1.1-1-2.5-1-2.4 0-3 .9-2.6 3.7.1.7-.8 1.3-1.9 1.3-2 0-2-.1-.6-1.6.9-.8 1.6-2.2 1.6-3 0-.8.9-2.3 2-3.4 1.6-1.6 3.2-2 7.8-1.9 5.3.2 5.4.2 1.7.8zM57 323c0 .5-.4 1-1 1-.5 0-1-.5-1-1 0-.6.5-1 1-1 .6 0 1 .4 1 1zm-42.7.7c-.7.2-1.9.2-2.5 0-.7-.3-.2-.5 1.2-.5s1.9.2 1.3.5zm4.6 11.5c.9.8 1.1.9.7.1-.4-.7.5-1.1 2.9-1 3.9.1 4.9 2.4 1.3 2.9-1.5.2-2.2.9-2.2 2.1.1 1.2-.4 1.7-1.5 1.5-.9-.2-1.5-1.1-1.3-2.1.3-2-1.6-2.2-5.2-.5-1.9.8-3.2.8-4.8 0l-2.3-1.1h2.3c1.2-.1 2.2-.5 2.2-1 0-.8 1.8-1.5 5.6-2 .5 0 1.6.5 2.3 1.1zM29 335c0 .5-.4 1-1 1-.5 0-1-.5-1-1 0-.6.5-1 1-1 .6 0 1 .4 1 1zm-23.3 3.6c-.3.3-1.2.4-1.9.1-.8-.3-.5-.6.6-.6 1.1-.1 1.7.2 1.3.5zm1.3 6.3c0 .5-1.1 1.1-2.5 1.3-2.6.5-2.9.1-1.9-2.6.5-1.2 1-1.3 2.5-.5 1 .5 1.9 1.4 1.9 1.8zm312.9 10.7c1 .9-4.5.3-5.9-.6-1.1-.7-.5-.8 2-.4 1.9.4 3.7.8 3.9 1zm32.1 9.3c0 .5.8 1.2 1.8 1.4 1.2.3 1.1.5-.6.6-1.2 0-3.4.8-4.8 1.7-1.3.9-2.8 1.3-3.2.9-.4-.4-.1-1 .6-1.2.6-.3 1.2-1.1 1.2-1.8 0-1.3 1.4-2.3 3.8-2.4.6-.1 1.2.3 1.2.8z"/><path d="M243.2 221.8c.3 2.2 2.2 6.7 4.2 9.9 2.5 4 3.6 7 3.6 9.6v3.8l-4.8-.7c-4.3-.5-5.1-.3-7.8 2.2-1.7 1.6-3.8 2.8-4.7 2.6-.8-.2-3 .4-4.7 1.3-3.1 1.6-3.2 1.6-2.6-.3.5-1.5-.1-2.5-2.7-4.1-4.3-2.6-5.4-2.6-12.2.1-6 2.5-6.9 4.3-2.9 5.8 3.3 1.3 5.8 1.4 10.9.4 2.2-.4 3.7-.3 3.3.1-1.1 1.2 2 3.6 4.9 4 2.6.3 6.1-1.1 7.4-2.8.3-.5 1.3-.1 2.2.8.9.9 2.5 1.5 3.4 1.3 3.6-.5 8.3 2.6 10.3 6.9 1.1 2.3 2.4 4.4 3 4.8.5.3 1 1.7 1 3.1 0 2.6 0 2.6-9.6 2.4-4.5-.1-7.2.4-10 1.9-4.5 2.5-8.8 2.7-13.5.7-3.5-1.5-10.9-.8-15.4 1.4-5.5 2.6-13.9 6-15.1 6-2.8 0-6.4 2.4-6.4 4.3 0 1.7.5 1.9 3.2 1.3 1.7-.3 7.2-1.1 12.1-1.6 4.9-.6 9.3-1.2 9.6-1.4.4-.3 6.4-.7 13.4-1 6.9-.4 13.2-.9 13.9-1.1.7-.3 2 0 2.8.5 2.1 1.3.3 3.9-4.7 6.7-3 1.7-5.7 2.3-11.4 2.4-4.1 0-8.4-.2-9.7-.5-1.5-.3-3 .2-4.2 1.4-2.5 2.5-2.5 2.6.2 3.3 1.7.5 1.9.9.9 2.1-.9 1.1-.9 1.6 0 2.1.6.4 1.5.2 1.9-.6.7-1.1 2-1 7.4.3 6.1 1.4 6.6 1.4 6.6-.1 0-1.3.2-1.3.9-.2 1.2 1.9 5.7.7 7.1-1.9.8-1.5 2.1-2 5.2-2 3.8 0 4 .2 3.6 2.5-.3 1.4-.2 2.5.2 2.5s1 .9 1.3 2.1c.6 2.1.6 2.1 4-.5 2.1-1.6 4.1-4.5 5.2-7.4 2.9-7.6 5.6-13.5 7.8-16.6 2.2-3.1 2.5-9.3.7-16.9-.5-2.5-.5-4.7.1-5.8.7-1.3.5-2.1-.8-2.8-1.4-.8-1-.9 1.5-.4l3.4.6-2.5-2.7c-2.8-3-9.7-14.2-9.7-15.7 0-.5-.8-1.7-1.7-2.7-2.4-2.4-8.3-11.6-8.3-13 0-.6-.5-1.4-1.2-1.8-.8-.5-1 .4-.6 3.4zM242 294c0 .5-.8 1-1.7 1-1.5 0-1.6-.2-.3-1 1.9-1.2 2-1.2 2 0zM325 255.1c0 .5.5.7 1 .4.6-.3 1-.8 1-1.1 0-.2-.4-.4-1-.4-.5 0-1 .5-1 1.1zM316.1 270.4c-1.3 1.4-2.1 3.1-1.9 3.8.3.8.9.4 1.8-1.2.7-1.4 1.8-2.8 2.4-3.2.6-.4.8-.9.5-1.2-.3-.3-1.6.5-2.8 1.8zM318.1 281.6c0 1.1.3 1.4.6.6.3-.7.2-1.6-.1-1.9-.3-.4-.6.2-.5 1.3z"/><path d="M236.5 300c.8 1.3 3.5 1.3 5.5 0 1.1-.7.5-1-2.3-1-2.3 0-3.6.4-3.2 1zM299.7 319.4c-.4 1-.1 1.3.9.9.7-.3 1.4-.9 1.4-1.4 0-1.4-1.7-1-2.3.5zM295.7 321.6c-.4.4-.7 1.4-.7 2.3 0 1.1.3 1.2 1.1.4.6-.6 1-1.6.7-2.3-.2-.6-.7-.8-1.1-.4z"/></svg>